<?xml version="1.0" encoding="utf-8"?>
<!-- Generator: Adobe Illustrator 21.1.0, SVG Export Plug-In . SVG Version: 6.00 Build 0)  -->
<svg version="1.1" id="Layer_1" xmlns="http://www.w3.org/2000/svg" xmlns:xlink="http://www.w3.org/1999/xlink" x="0px" y="0px"
	 viewBox="0 0 288 109" style="enable-background:new 0 0 288 109;" xml:space="preserve">
<style type="text/css">
	.st0{fill:none;}
	.st1{opacity:0.21;clip-path:url(#XMLID_33_);}
	.st2{fill:#333333;}
	.st3{fill:#1F1F1F;}
	.st4{fill:#0A0A0A;}
</style>
<rect class="st0" width="288" height="109"/>
<g>
	<defs>
		
			<rect id="XMLID_1_" x="-4.7" y="-77.6" transform="matrix(0.8279 -0.5609 0.5609 0.8279 -13.0606 89.1017)" width="286.8" height="286.8"/>
	</defs>
	<clipPath id="XMLID_33_">
		<use xlink:href="#XMLID_1_"  style="overflow:visible;"/>
	</clipPath>
	<g id="XMLID_2_" class="st1">
		<polygon class="st2" points="11.3,178.5 39,176.7 11.6,136.3 -0.3,161.4 		"/>
		<polygon points="-0.3,161.4 11.6,136.3 -16.1,138 		"/>
		<polygon class="st3" points="-16.1,138 11.6,136.3 -15.8,95.8 -27.7,120.9 		"/>
		<polygon class="st2" points="107.5,277.8 93.9,257.6 81.9,282.8 87.7,291.3 		"/>
		<polygon class="st2" points="81.9,282.8 93.9,257.6 66.1,259.4 		"/>
		<polygon class="st2" points="66.1,259.4 93.9,257.6 66.5,217.2 54.5,242.3 		"/>
		<polygon class="st4" points="54.5,242.3 66.5,217.2 38.7,218.9 		"/>
		<polygon class="st4" points="38.7,218.9 66.5,217.2 39,176.7 27.1,201.8 		"/>
		<polygon class="st3" points="27.1,201.8 39,176.7 11.3,178.5 		"/>
		<polygon class="st3" points="-27.7,120.9 -15.8,95.8 -43.5,97.6 		"/>
		<polygon class="st3" points="-43.5,97.6 -15.8,95.8 -43.2,55.3 -55.1,80.5 		"/>
		<polygon class="st4" points="-55.1,80.5 -43.2,55.3 -70.9,57.1 		"/>
		<polygon class="st4" points="-70.9,57.1 -43.2,55.3 -69.7,16.3 -72,17.8 -82.5,40 		"/>
		<polygon class="st4" points="-82.5,40 -72,17.8 -89.5,29.7 		"/>
		<polygon points="141.8,254.6 93.9,257.6 107.5,277.8 		"/>
		<polygon points="141.9,254.6 114.5,214.1 93.9,257.6 141.8,254.6 		"/>
		<polygon id="XMLID_147_" class="st4" points="66.5,217.2 114.5,214.1 93.9,257.6 		"/>
		<polygon id="XMLID_146_" class="st4" points="114.5,214.1 66.5,217.2 87.1,173.7 		"/>
		<polygon id="XMLID_145_" points="39,176.7 87.1,173.7 66.5,217.2 		"/>
		<polygon id="XMLID_144_" class="st3" points="87.1,173.7 39,176.7 59.7,133.2 		"/>
		<polygon id="XMLID_143_" class="st2" points="11.6,136.3 59.7,133.2 39,176.7 		"/>
		<polygon id="XMLID_142_" class="st4" points="59.7,133.2 11.6,136.3 32.3,92.8 		"/>
		<polygon id="XMLID_141_" points="-15.8,95.8 32.3,92.8 11.6,136.3 		"/>
		<polygon id="XMLID_140_" class="st3" points="32.3,92.8 -15.8,95.8 4.9,52.3 		"/>
		<polygon id="XMLID_139_" class="st4" points="-43.2,55.3 4.9,52.3 -15.8,95.8 		"/>
		<polygon id="XMLID_138_" class="st4" points="4.9,52.3 -43.2,55.3 -22.5,11.8 		"/>
		<polygon class="st3" points="-69.7,16.3 -43.2,55.3 -22.5,11.8 -67.3,14.7 		"/>
		<polygon class="st2" points="-35.3,-7 -67.3,14.7 -22.5,11.8 		"/>
		<polygon class="st4" points="176.3,231.3 162.6,211.1 142,254.5 		"/>
		<polygon class="st3" points="142,254.5 162.6,211.1 114.5,214.1 141.9,254.6 		"/>
		<polygon id="XMLID_137_" class="st3" points="162.6,211.1 114.5,214.1 135.2,170.6 		"/>
		<polygon id="XMLID_136_" class="st3" points="87.1,173.7 135.2,170.6 114.5,214.1 		"/>
		<polygon id="XMLID_135_" class="st3" points="135.2,170.6 87.1,173.7 107.8,130.2 		"/>
		<polygon id="XMLID_134_" class="st3" points="59.7,133.2 107.8,130.2 87.1,173.7 		"/>
		<polygon id="XMLID_133_" class="st3" points="107.8,130.2 59.7,133.2 80.4,89.7 		"/>
		<polygon id="XMLID_132_" class="st4" points="32.3,92.8 80.4,89.7 59.7,133.2 		"/>
		<polygon id="XMLID_131_" points="80.4,89.7 32.3,92.8 53,49.3 		"/>
		<polygon id="XMLID_130_" class="st3" points="4.9,52.3 53,49.3 32.3,92.8 		"/>
		<polygon id="XMLID_129_" points="53,49.3 4.9,52.3 25.6,8.8 		"/>
		<polygon id="XMLID_128_" points="-22.5,11.8 25.6,8.8 4.9,52.3 		"/>
		<polygon class="st3" points="-0.9,-30.3 -3.3,-28.7 -22.5,11.8 25.6,8.8 		"/>
		<polygon class="st3" points="-3.3,-28.7 -35.3,-7 -22.5,11.8 		"/>
		<polygon class="st2" points="210.6,208 162.6,211.1 176.3,231.3 		"/>
		<polygon class="st2" points="210.6,208 183.2,167.6 162.6,211.1 210.6,208 		"/>
		<polygon id="XMLID_127_" class="st3" points="135.2,170.6 183.2,167.6 162.6,211.1 		"/>
		<polygon id="XMLID_126_" class="st4" points="183.2,167.6 135.2,170.6 155.8,127.1 		"/>
		<polygon id="XMLID_125_" class="st2" points="107.8,130.2 155.8,127.1 135.2,170.6 		"/>
		<polygon id="XMLID_124_" class="st3" points="155.8,127.1 107.8,130.2 128.4,86.7 		"/>
		<polygon id="XMLID_123_" class="st3" points="80.4,89.7 128.4,86.7 107.8,130.2 		"/>
		<polygon id="XMLID_122_" class="st4" points="128.4,86.7 80.4,89.7 101,46.2 		"/>
		<polygon id="XMLID_121_" class="st4" points="53,49.3 101,46.2 80.4,89.7 		"/>
		<polygon id="XMLID_120_" class="st3" points="101,46.2 53,49.3 73.6,5.7 		"/>
		<polygon id="XMLID_119_" points="25.6,8.8 73.6,5.7 53,49.3 		"/>
		<polygon id="XMLID_118_" class="st4" points="73.6,5.7 25.6,8.8 46.2,-34.7 		"/>
		<polygon class="st3" points="-0.9,-30.3 25.6,8.8 46.2,-34.7 1.4,-31.9 		"/>
		<polygon class="st4" points="33.4,-53.6 1.4,-31.9 46.2,-34.7 		"/>
		<polygon class="st4" points="245,184.7 231.3,164.5 210.7,208 		"/>
		<polygon class="st3" points="210.7,208 231.3,164.5 183.2,167.6 210.6,208 		"/>
		<polygon id="XMLID_117_" class="st3" points="231.3,164.5 183.2,167.6 203.9,124.1 		"/>
		<polygon id="XMLID_116_" class="st3" points="155.8,127.1 203.9,124.1 183.2,167.6 		"/>
		<polygon id="XMLID_115_" class="st2" points="203.9,124.1 155.8,127.1 176.5,83.6 		"/>
		<polygon id="XMLID_68_" class="st2" points="128.4,86.7 176.5,83.6 155.8,127.1 		"/>
		<polygon id="XMLID_59_" class="st3" points="176.5,83.6 128.4,86.7 149.1,43.2 		"/>
		<polygon id="XMLID_58_" class="st2" points="101,46.2 149.1,43.2 128.4,86.7 		"/>
		<polygon id="XMLID_53_" class="st2" points="149.1,43.2 101,46.2 121.7,2.7 		"/>
		<polygon id="XMLID_52_" points="73.6,5.7 121.7,2.7 101,46.2 		"/>
		<polygon id="XMLID_50_" class="st4" points="121.7,2.7 73.6,5.7 94.3,-37.8 		"/>
		<polygon id="XMLID_42_" class="st2" points="46.2,-34.7 94.3,-37.8 73.6,5.7 		"/>
		<polygon points="67.8,-76.8 65.5,-75.3 46.2,-34.7 94.3,-37.8 		"/>
		<polygon points="65.5,-75.3 33.4,-53.6 46.2,-34.7 		"/>
		<polygon class="st4" points="279.3,161.5 231.3,164.5 245,184.7 		"/>
		<polygon class="st4" points="279.4,161.4 252,121 231.3,164.5 279.3,161.5 		"/>
		<polygon id="XMLID_39_" class="st3" points="203.9,124.1 252,121 231.3,164.5 		"/>
		<polygon id="XMLID_31_" class="st2" points="252,121 203.9,124.1 224.6,80.6 		"/>
		<polygon id="XMLID_30_" points="176.5,83.6 224.6,80.6 203.9,124.1 		"/>
		<polygon id="XMLID_29_" class="st4" points="224.6,80.6 176.5,83.6 197.2,40.1 		"/>
		<polygon id="XMLID_28_" class="st2" points="149.1,43.2 197.2,40.1 176.5,83.6 		"/>
		<polygon id="XMLID_27_" class="st3" points="197.2,40.1 149.1,43.2 169.7,-0.4 		"/>
		<polygon id="XMLID_26_" class="st2" points="121.7,2.7 169.7,-0.4 149.1,43.2 		"/>
		<polygon id="XMLID_25_" class="st3" points="169.7,-0.4 121.7,2.7 142.3,-40.8 		"/>
		<polygon id="XMLID_24_" class="st3" points="94.3,-37.8 142.3,-40.8 121.7,2.7 		"/>
		<polygon id="XMLID_23_" class="st3" points="142.3,-40.8 94.3,-37.8 114.9,-81.3 		"/>
		<polygon class="st3" points="67.8,-76.8 94.3,-37.8 114.9,-81.3 70.1,-78.4 		"/>
		<polygon points="102.2,-100.1 70.1,-78.4 114.9,-81.3 		"/>
		<polygon class="st4" points="313.7,138.2 300,118 279.4,161.4 		"/>
		<polygon class="st3" points="279.4,161.4 300,118 252,121 279.4,161.4 		"/>
		<polygon id="XMLID_22_" class="st3" points="300,118 252,121 272.6,77.5 		"/>
		<polygon id="XMLID_21_" class="st3" points="224.6,80.6 272.6,77.5 252,121 		"/>
		<polygon id="XMLID_20_" class="st3" points="272.6,77.5 224.6,80.6 245.2,37.1 		"/>
		<polygon id="XMLID_19_" class="st2" points="197.2,40.1 245.2,37.1 224.6,80.6 		"/>
		<polygon id="XMLID_18_" points="245.2,37.1 197.2,40.1 217.8,-3.4 		"/>
		<polygon id="XMLID_17_" class="st4" points="169.7,-0.4 217.8,-3.4 197.2,40.1 		"/>
		<polygon id="XMLID_16_" class="st3" points="217.8,-3.4 169.7,-0.4 190.4,-43.9 		"/>
		<polygon id="XMLID_15_" class="st3" points="142.3,-40.8 190.4,-43.9 169.7,-0.4 		"/>
		<polygon id="XMLID_14_" class="st4" points="190.4,-43.9 142.3,-40.8 163,-84.3 		"/>
		<polygon id="XMLID_13_" class="st4" points="114.9,-81.3 163,-84.3 142.3,-40.8 		"/>
		<polygon points="136.5,-123.4 134.2,-121.8 114.9,-81.3 163,-84.3 		"/>
		<polygon class="st4" points="134.2,-121.8 102.2,-100.1 114.9,-81.3 		"/>
		<polygon points="348,114.9 300,118 313.7,138.2 		"/>
		<polygon class="st3" points="348.1,114.9 320.7,74.5 300,118 348,114.9 		"/>
		<polygon id="XMLID_12_" class="st3" points="272.6,77.5 320.7,74.5 300,118 		"/>
		<polygon id="XMLID_11_" class="st4" points="320.7,74.5 272.6,77.5 293.3,34 		"/>
		<polygon id="XMLID_10_" class="st4" points="245.2,37.1 293.3,34 272.6,77.5 		"/>
		<polygon id="XMLID_9_" class="st3" points="293.3,34 245.2,37.1 265.9,-6.5 		"/>
		<polygon id="XMLID_8_" class="st3" points="217.8,-3.4 265.9,-6.5 245.2,37.1 		"/>
		<polygon id="XMLID_7_" class="st4" points="265.9,-6.5 217.8,-3.4 238.5,-46.9 		"/>
		<polygon id="XMLID_6_" class="st3" points="190.4,-43.9 238.5,-46.9 217.8,-3.4 		"/>
		<polygon id="XMLID_5_" class="st2" points="238.5,-46.9 190.4,-43.9 211.1,-87.4 		"/>
		<polygon id="XMLID_4_" points="163,-84.3 211.1,-87.4 190.4,-43.9 		"/>
		<polygon id="XMLID_3_" class="st3" points="211.1,-87.4 163,-84.3 183.7,-127.8 		"/>
		<polygon class="st2" points="136.5,-123.4 163,-84.3 183.7,-127.8 138.9,-125 		"/>
		<polygon class="st3" points="170.9,-146.7 138.9,-125 183.7,-127.8 		"/>
		<polygon class="st4" points="321.2,74.4 320.7,74.5 348.1,114.9 348.1,114.8 348.3,114.5 		"/>
		<polygon class="st2" points="293.8,34 293.3,34 320.7,74.5 320.9,74 		"/>
		<polygon points="266.4,-6.5 265.9,-6.5 293.3,34 293.5,33.6 		"/>
		<polygon points="238.9,-46.9 238.5,-46.9 265.9,-6.5 266.1,-6.9 		"/>
		<polygon class="st3" points="211.5,-87.4 211.1,-87.4 238.5,-46.9 238.7,-47.3 		"/>
		<polygon class="st4" points="184.1,-127.9 183.7,-127.8 211.1,-87.4 211.3,-87.8 		"/>
		<polygon points="171.2,-146.9 170.9,-146.7 183.7,-127.8 183.9,-128.3 		"/>
	</g>
</g>
</svg>
