<?xml version="1.0" encoding="utf-8"?>
<!-- Generator: Adobe Illustrator 21.1.0, SVG Export Plug-In . SVG Version: 6.00 Build 0)  -->
<svg version="1.1" id="Layer_1" xmlns="http://www.w3.org/2000/svg" xmlns:xlink="http://www.w3.org/1999/xlink" x="0px" y="0px"
	 viewBox="0 0 612 90" style="enable-background:new 0 0 612 90;" xml:space="preserve">
<g>
	<path d="M0,1.4h11.3v77.7h37.2v9.4H0V1.4z"/>
	<path d="M130.5,44.1c0,30-18.2,45.9-40.5,45.9c-23,0-39.2-17.8-39.2-44.2C50.8,18.1,68.1,0,91.3,0C115.1,0,130.5,18.2,130.5,44.1z
		 M62.9,45.5c0,18.6,10.1,35.3,27.8,35.3c17.8,0,27.9-16.4,27.9-36.2c0-17.3-9.1-35.4-27.8-35.4C72.2,9.2,62.9,26.4,62.9,45.5z"/>
	<path d="M211.5,84.7c-5,1.8-15,4.8-26.8,4.8c-13.2,0-24.1-3.4-32.6-11.5c-7.5-7.2-12.2-18.9-12.2-32.5c0.1-26,18-45,47.2-45
		c10.1,0,18,2.2,21.7,4l-2.7,9.2c-4.7-2.1-10.5-3.7-19.3-3.7c-21.2,0-35,13.2-35,35c0,22.1,13.3,35.2,33.6,35.2c7.4,0,12.4-1,15-2.3
		v-26h-17.7v-9.1h28.7V84.7z"/>
	<path d="M303.3,44.1c0,30-18.2,45.9-40.5,45.9c-23,0-39.2-17.8-39.2-44.2c0-27.7,17.2-45.8,40.5-45.8
		C287.9,0,303.3,18.2,303.3,44.1z M235.6,45.5c0,18.6,10.1,35.3,27.8,35.3c17.8,0,27.9-16.4,27.9-36.2c0-17.3-9.1-35.4-27.8-35.4
		C244.9,9.2,235.6,26.4,235.6,45.5z"/>
	<path d="M356.6,1.4v36.5h42.2V1.4h11.4v87.2h-11.4V47.7h-42.2v40.9h-11.3V1.4H356.6z"/>
	<path d="M474.8,47.7H441v31.4h37.8v9.4h-49V1.4h47.1v9.4H441v27.5h33.9V47.7z"/>
	<path d="M493.4,2.6c5.7-1.2,13.8-1.8,21.6-1.8c12,0,19.8,2.2,25.2,7.1c4.4,3.9,6.9,9.8,6.9,16.6c0,11.5-7.2,19.1-16.4,22.2v0.4
		c6.7,2.3,10.7,8.5,12.8,17.6c2.8,12.2,4.9,20.6,6.7,23.9h-11.6c-1.4-2.5-3.4-10-5.8-20.8c-2.6-12-7.2-16.6-17.5-16.9h-10.6v37.8
		h-11.3V2.6z M504.6,42.3h11.5c12,0,19.7-6.6,19.7-16.6c0-11.3-8.1-16.2-20-16.3c-5.4,0-9.3,0.5-11.1,1V42.3z"/>
	<path d="M608.1,47.7h-33.9v31.4H612v9.4h-49V1.4h47.1v9.4h-35.8v27.5h33.9V47.7z"/>
</g>
</svg>
