<?xml version="1.0" encoding="utf-8"?>
<!-- Generator: Adobe Illustrator 21.1.0, SVG Export Plug-In . SVG Version: 6.00 Build 0)  -->
<svg version="1.1" id="Layer_1" xmlns="http://www.w3.org/2000/svg" xmlns:xlink="http://www.w3.org/1999/xlink" x="0px" y="0px"
	 viewBox="0 0 14 11.4" style="enable-background:new 0 0 14 11.4;" xml:space="preserve">
<style type="text/css">
	.st0{fill:#FFFFFF;}
</style>
<g>
	<path class="st0" d="M0,9.8c1.6-1.1,3.1-3.1,3.3-4.7c-0.1,0-0.5,0.1-0.7,0.1c-1.4,0-2.4-1.1-2.4-2.6C0.1,1.2,1.3,0,2.8,0
		C4.5,0,6,1.4,6,3.8c0,3.1-1.8,5.9-4.1,7.6L0,9.8z M8.1,9.8c1.6-1.1,3-3.1,3.2-4.7c-0.1,0-0.5,0.1-0.7,0.1c-1.4,0-2.5-1.1-2.5-2.6
		C8.2,1.2,9.4,0,10.8,0C12.5,0,14,1.4,14,3.8c0,3.1-1.8,5.9-4,7.6L8.1,9.8z"/>
</g>
</svg>
