<?xml version="1.0" encoding="utf-8"?>
<!-- Generator: Adobe Illustrator 21.1.0, SVG Export Plug-In . SVG Version: 6.00 Build 0)  -->
<svg version="1.1" id="Layer_1" xmlns="http://www.w3.org/2000/svg" xmlns:xlink="http://www.w3.org/1999/xlink" x="0px" y="0px"
	 viewBox="0 0 13.9 11.3" style="enable-background:new 0 0 13.9 11.3;" xml:space="preserve">
<style type="text/css">
	.st0{fill:#FFFFFF;}
</style>
<g>
	<path class="st0" d="M5.9,1.5C4.3,2.6,2.9,4.6,2.7,6.2c0,0,0.4,0,0.6,0c1.4,0,2.4,1,2.4,2.5c0,1.5-1.2,2.7-2.7,2.7
		C1.5,11.3,0,10,0,7.5C0,4.5,1.8,1.6,4.1,0L5.9,1.5z M13.9,1.5c-1.6,1.1-3,3.1-3.2,4.7c0,0,0.4,0,0.6,0c1.4,0,2.5,1,2.5,2.5
		c0,1.5-1.2,2.7-2.7,2.7C9.5,11.3,8,10,8,7.5C8,4.5,9.8,1.6,12.1,0L13.9,1.5z"/>
</g>
</svg>
