<?xml version="1.0" standalone="no"?>
<!DOCTYPE svg PUBLIC "-//W3C//DTD SVG 20010904//EN"
 "http://www.w3.org/TR/2001/REC-SVG-20010904/DTD/svg10.dtd">
<svg version="1.0" xmlns="http://www.w3.org/2000/svg"
 width="792.000000pt" height="792.000000pt" viewBox="0 0 792.000000 792.000000"
 preserveAspectRatio="xMidYMid meet">
<metadata>
Created by potrace 1.11, written by Peter Selinger 2001-2013
</metadata>
<g transform="translate(0.000000,792.000000) scale(0.100000,-0.100000)"
fill="#000000" stroke="none">
<path d="M1611 7500 c-8 -5 -5 -497 3 -595 13 -144 21 -220 26 -220 1 0 3 -18
4 -40 2 -22 6 -53 9 -70 4 -16 9 -46 12 -65 9 -52 14 -82 20 -110 4 -14 8 -34
9 -45 2 -11 9 -40 15 -65 12 -45 17 -68 25 -105 7 -31 64 -218 76 -251 7 -16
13 -36 15 -44 5 -23 69 -177 106 -255 18 -38 32 -73 31 -77 -4 -14 16 -9 60
16 24 13 70 38 103 56 159 87 221 122 235 130 8 6 44 26 80 45 36 19 83 45
105 58 35 19 159 88 249 138 17 9 32 22 34 30 3 8 1 11 -2 7 -4 -3 -33 8 -64
26 -60 35 -122 70 -209 117 -85 46 -97 53 -115 68 -10 8 -18 11 -18 6 0 -4 -6
-3 -12 3 -7 5 -31 20 -53 32 -22 13 -58 33 -81 46 -23 13 -61 34 -85 47 -24
13 -73 40 -109 59 -36 20 -81 44 -100 54 -19 11 -37 21 -40 24 -3 3 -31 19
-63 35 -33 17 -60 33 -62 36 -2 3 137 5 308 5 l312 -1 75 -39 c41 -22 77 -43
78 -48 2 -4 11 -8 21 -8 9 0 21 -4 27 -9 5 -5 34 -22 64 -39 30 -16 91 -48
135 -72 155 -82 231 -123 281 -151 44 -24 54 -26 64 -14 6 8 21 17 32 21 12 3
43 19 70 35 27 16 77 44 111 63 73 39 95 52 337 187 l185 103 328 0 c181 1
331 -2 333 -5 2 -4 -9 -13 -24 -21 -25 -12 -116 -65 -152 -88 -50 -32 -262
-160 -265 -160 -2 0 -59 -34 -127 -75 -67 -42 -130 -80 -138 -85 -8 -5 -72
-44 -143 -86 -70 -42 -130 -81 -133 -85 -3 -5 -9 -7 -14 -4 -4 3 -10 -2 -13
-9 -4 -11 25 -31 101 -72 162 -86 270 -144 337 -181 33 -18 67 -36 75 -39 8
-4 69 -37 135 -73 66 -36 122 -66 125 -66 3 0 10 -3 15 -7 16 -9 92 -51 190
-103 50 -26 117 -62 150 -80 58 -31 98 -53 285 -153 47 -24 112 -59 145 -77
33 -18 105 -56 160 -85 55 -29 104 -56 108 -60 4 -4 -158 -7 -360 -7 l-368 0
-65 34 c-36 19 -83 45 -105 57 -22 13 -60 35 -85 48 -25 14 -63 35 -85 48 -22
12 -76 42 -120 67 -44 24 -87 48 -95 53 -8 6 -26 16 -40 22 -14 7 -58 32 -98
55 -40 24 -77 43 -81 43 -5 0 -11 3 -13 8 -1 4 -19 15 -38 24 -19 10 -48 26
-65 35 -79 47 -141 81 -150 82 -5 2 -17 8 -25 14 -8 7 -24 17 -35 23 -98 53
-142 78 -150 84 -5 4 -41 24 -80 45 -38 21 -77 43 -86 48 -12 8 -28 4 -60 -15
-24 -13 -62 -35 -84 -48 -22 -12 -52 -31 -67 -41 -14 -11 -29 -19 -32 -19 -3
0 -24 -12 -48 -27 -24 -16 -52 -33 -63 -40 -51 -31 -232 -139 -247 -148 -10
-5 -79 -47 -153 -92 -74 -46 -139 -83 -145 -83 -5 0 -10 -4 -10 -10 0 -5 -5
-10 -11 -10 -6 0 -30 -13 -54 -30 -24 -16 -48 -30 -54 -30 -6 0 -11 -4 -11
-10 0 -5 -7 -10 -15 -10 -8 0 -15 -5 -15 -10 0 -18 115 -194 176 -269 62 -77
92 -114 132 -161 54 -64 372 -381 428 -427 22 -17 59 -49 84 -72 55 -50 40
-37 196 -163 71 -58 194 -153 274 -212 80 -59 153 -114 163 -122 9 -7 22 -14
27 -14 6 0 10 -4 10 -8 0 -5 12 -15 28 -23 15 -8 32 -18 37 -22 6 -4 18 -13
27 -20 22 -15 31 -120 38 -442 2 -67 -9 -358 -15 -415 -2 -25 -7 -70 -10 -100
-3 -30 -10 -82 -15 -115 -5 -33 -12 -80 -15 -105 -4 -24 -9 -48 -11 -52 -3 -4
-7 -26 -9 -49 -2 -23 -7 -50 -10 -59 -3 -10 -7 -27 -9 -37 -2 -10 -14 -54 -25
-98 -12 -44 -23 -87 -26 -95 -81 -314 -295 -725 -510 -978 -58 -70 -233 -242
-290 -288 -27 -21 -55 -43 -62 -49 -29 -24 -41 -32 -98 -70 -60 -40 -76 -49
-148 -86 -25 -13 -35 -24 -30 -32 4 -7 20 -48 34 -92 l26 -80 1383 -3 c946 -1
1387 1 1395 8 7 6 16 27 21 48 4 20 8 39 9 42 19 63 26 93 23 95 -2 1 -30 20
-63 40 -80 51 -222 152 -264 190 -115 102 -202 187 -261 255 -12 14 -32 37
-45 52 -63 71 -245 336 -245 357 0 5 -7 14 -15 21 -9 7 -13 15 -10 18 3 3 0
11 -5 17 -26 31 -109 215 -175 385 -15 38 -48 139 -51 155 -1 6 -11 42 -22 80
-21 69 -41 151 -48 190 -1 11 -9 52 -18 90 -8 39 -17 88 -20 110 -3 22 -8 51
-10 64 -3 13 -8 51 -11 85 -2 33 -7 72 -10 86 -22 120 -22 625 1 801 6 49 3
47 119 110 22 12 42 25 45 29 3 4 16 13 30 20 99 50 419 284 570 415 130 114
345 326 430 426 25 29 59 69 76 88 17 20 52 65 79 101 27 36 52 67 55 70 4 3
15 20 25 38 11 17 23 32 27 32 4 0 8 7 8 15 0 8 4 15 9 15 5 0 13 9 16 20 3
11 12 26 18 32 13 14 108 163 120 188 4 8 16 29 26 47 29 46 134 244 136 253
0 3 11 28 24 55 54 117 139 331 155 390 2 6 6 17 9 25 14 36 73 237 82 283 2
10 6 26 9 35 3 9 8 28 10 42 3 14 12 54 20 90 8 36 17 81 20 100 3 19 7 44 10
55 10 50 23 142 30 215 3 30 8 82 12 115 3 33 8 101 9 150 2 50 4 90 5 90 9 0
-6 344 -15 353 -7 8 -4683 10 -4694 2z"/>
</g>
</svg>
